# xmcd
#
# Track frame offsets:
#	150
#	34041
#	126242
#	159412
#	175898
#	214433
#	238221
#	267957
#
# Disc length: 4048 seconds
#
# Revision: 1
# Processed by: cddbd v1.5.2PL0 Copyright (c) Steve Scherf et al.
# Submitted via: audiograbber 1.83.01
#
DISCID=720fce08
DTITLE=Grateful Dead - 72-12-10 Winterland Arena, San Francisco CA
DYEAR=1900
DGENRE=
TTITLE0=Bertha
TTITLE1=Playing In The Band
TTITLE2=Casey Jones
TTITLE3=Promised Land
TTITLE4=Stella Blue
TTITLE5=Jack Straw
TTITLE6=China Cat Sunflower
TTITLE7=I Know You Rider
EXTD=
EXTT0=
EXTT1=
EXTT2=
EXTT3=
EXTT4=
EXTT5=
EXTT6=
EXTT7=
PLAYORDER=
